<?xml version="1.0" encoding="utf-8"?>
<!-- Generator: Adobe Illustrator 28.1.0, SVG Export Plug-In . SVG Version: 6.00 Build 0)  -->
<svg version="1.1" xmlns="http://www.w3.org/2000/svg" xmlns:xlink="http://www.w3.org/1999/xlink" x="0px" y="0px"
	 viewBox="0 0 512 512" style="enable-background:new 0 0 512 512;" xml:space="preserve">
<style type="text/css">
	.st0{fill:#FFFFFF;}
	.st1{fill:#309999;}
	.st2{fill:none;stroke:#309999;stroke-width:11.0792;stroke-miterlimit:10;}
	.st3{fill:none;stroke:#B8E0DC;stroke-width:11.0792;stroke-miterlimit:10;}
</style>
<g id="Layer_1">
</g>
<g id="Layer_2">
	<g>
		<g>
			<circle class="st0" cx="256" cy="256" r="248.4"/>
			<g>
				<path class="st1" d="M500.6,256c0,25.7-4,51.3-12,75.8c-7.6,23.5-18.9,45.7-33.2,65.9c-14.1,19.9-31.3,37.7-50.7,52.6
					c-19.5,15-41.4,27-64.5,35.5c-24,8.8-49.3,13.8-74.8,14.7c-25.7,1-51.5-2.1-76.3-9.1c-23.9-6.8-46.7-17.3-67.5-30.9
					c-20.4-13.4-38.8-30-54.4-48.8c-15.6-18.9-28.5-40.3-37.8-63C20,325.2,14,300.3,12.1,275.1c-2-25.9,0.1-52,6.2-77.2
					c5.9-24.1,15.5-47.3,28.4-68.5c12.7-21,28.6-40,47-56.4C112,56.7,132.8,43.2,155.2,33C178,22.6,202.7,15.8,227.6,13
					c25.7-2.9,51.9-1.9,77.3,3.3c24.5,5,48.2,13.8,70.1,26c21.4,11.9,40.9,27.1,57.8,44.8c17,17.8,31.3,38.1,42.3,60.2
					c11.2,22.4,18.8,46.6,22.6,71.3C499.7,230.9,500.6,243.4,500.6,256c0,4.8,7.5,4.9,7.5,0c0-26.4-4.1-52.7-12.2-77.8
					c-7.9-24.2-19.4-47.2-34.1-67.9c-14.8-20.7-32.5-39.1-52.7-54.6c-20.2-15.5-42.6-27.8-66.5-36.5C318,10.1,292,5.1,265.8,4
					c-26.5-1-53.2,2.1-78.6,9.3c-24.5,7-48,17.7-69.3,31.7C96.7,59,77.6,76,61.5,95.5c-16.2,19.7-29.4,41.6-39,65.2
					c-9.9,24.1-15.9,49.8-17.9,75.8C2.5,263,4.7,289.9,11,315.8c6,24.9,15.9,48.8,29.2,70.7c13.1,21.6,29.5,41.3,48.4,58.1
					c18.9,16.8,40.3,30.8,63.4,41.2c23.8,10.7,49,17.7,75,20.7c26.5,3.1,53.5,1.9,79.6-3.4c25.2-5.1,49.5-14.2,72-26.6
					c22.1-12.3,42.4-28,59.9-46.3c17.4-18.3,32.2-39.1,43.4-61.8c11.5-23.1,19.5-48,23.4-73.5c2-12.9,3-25.9,3-38.9
					C508.2,251.2,500.6,251.1,500.6,256z"/>
			</g>
		</g>
		<g>
			<line class="st2" x1="150.8" y1="30.1" x2="150.8" y2="482.4"/>
			<line class="st2" x1="361.2" y1="29.6" x2="361.2" y2="482.4"/>
		</g>
		<g>
			<line class="st2" x1="30.1" y1="361.2" x2="482.4" y2="361.2"/>
			<line class="st2" x1="29.6" y1="150.8" x2="482.4" y2="150.8"/>
		</g>
		<line class="st3" x1="164.5" y1="164.5" x2="347.5" y2="347.5"/>
		<line class="st3" x1="164.5" y1="347.5" x2="347.5" y2="164.5"/>
	</g>
</g>
</svg>
