<?xml version="1.0" encoding="utf-8"?>
<!-- Generator: Adobe Illustrator 28.1.0, SVG Export Plug-In . SVG Version: 6.00 Build 0)  -->
<svg version="1.1" id="Layer_1" xmlns="http://www.w3.org/2000/svg" xmlns:xlink="http://www.w3.org/1999/xlink" x="0px" y="0px"
	 viewBox="0 0 512 512" style="enable-background:new 0 0 512 512;" xml:space="preserve">
<style type="text/css">
	.st0{fill:#FFFFFF;}
	.st1{fill:#309999;}
	.st2{fill:none;stroke:#309999;stroke-width:11.0792;stroke-miterlimit:10;}
	.st3{fill:none;stroke:#B8E0DC;stroke-width:11.0792;stroke-miterlimit:10;}
	.st4{fill:#F4A6B9;}
	.st5{font-family:'CooperBlack';}
	.st6{font-size:87.243px;}
</style>
<g>
	<g id="Layer_1_00000165220342223157237200000015933602766921944196_">
	</g>
	<g id="Layer_2_00000182494641945248397820000002054895457960111792_">
		<g>
			<g>
				<circle class="st0" cx="255.9" cy="256" r="248.4"/>
				<g>
					<path class="st1" d="M500.5,256c0,25.7-4,51.3-12,75.8c-7.6,23.5-18.9,45.7-33.2,65.9c-14.1,19.9-31.3,37.7-50.7,52.6
						c-19.5,15-41.4,27-64.5,35.5c-24,8.8-49.3,13.8-74.8,14.7c-25.7,1-51.5-2.1-76.3-9.1c-23.9-6.8-46.7-17.3-67.5-30.9
						c-20.4-13.4-38.8-30-54.4-48.8c-15.6-18.9-28.5-40.3-37.8-63c-9.4-23.5-15.4-48.4-17.3-73.6c-2-25.9,0.1-52,6.2-77.2
						c5.9-24.1,15.5-47.3,28.4-68.5c12.7-21,28.6-40,47-56.4c18.3-16.3,39.1-29.8,61.5-40c22.8-10.4,47.5-17.2,72.4-20
						c25.7-2.9,51.9-1.9,77.3,3.3c24.5,5,48.2,13.8,70.1,26c21.4,11.9,40.9,27.1,57.8,44.8c17,17.8,31.3,38.1,42.3,60.2
						c11.2,22.4,18.8,46.6,22.6,71.3C499.6,230.9,500.5,243.4,500.5,256c0,4.8,7.5,4.9,7.5,0c0-26.4-4.1-52.7-12.2-77.8
						c-7.9-24.2-19.4-47.2-34.1-67.9c-14.8-20.7-32.5-39.1-52.7-54.6s-42.6-27.8-66.5-36.5C317.9,10.1,291.9,5.1,265.7,4
						c-26.5-1-53.2,2.1-78.6,9.3c-24.5,7-48,17.7-69.3,31.7C96.6,59,77.5,76,61.4,95.5c-16.2,19.7-29.4,41.6-39,65.2
						c-9.9,24.1-15.9,49.8-17.9,75.8c-2.1,26.5,0.1,53.4,6.4,79.3c6,24.9,15.9,48.8,29.2,70.7c13.1,21.6,29.5,41.3,48.4,58.1
						c18.9,16.8,40.3,30.8,63.4,41.2c23.8,10.7,49,17.7,75,20.7c26.5,3.1,53.5,1.9,79.6-3.4c25.2-5.1,49.5-14.2,72-26.6
						c22.1-12.3,42.4-28,59.9-46.3c17.4-18.3,32.2-39.1,43.4-61.8c11.5-23.1,19.5-48,23.4-73.5c2-12.9,3-25.9,3-38.9
						C508.1,251.2,500.5,251.1,500.5,256z"/>
				</g>
			</g>
			<g>
				<line class="st2" x1="150.7" y1="30.1" x2="150.7" y2="482.4"/>
				<line class="st2" x1="361.1" y1="29.6" x2="361.1" y2="482.4"/>
			</g>
			<g>
				<line class="st2" x1="30" y1="361.2" x2="482.3" y2="361.2"/>
				<line class="st2" x1="29.5" y1="150.8" x2="482.3" y2="150.8"/>
			</g>
			<line class="st3" x1="164.4" y1="164.5" x2="347.4" y2="347.5"/>
			<line class="st3" x1="164.4" y1="347.5" x2="347.4" y2="164.5"/>
		</g>
	</g>
	<text transform="matrix(1 0 0 1 12.8015 281.6344)" class="st4 st5 st6">Tic-Tac-Toe</text>
</g>
</svg>
